<svg width="25" height="25" viewBox="0 0 25 25" fill="none" xmlns="http://www.w3.org/2000/svg">
<path d="M0.549316 12.7776C0.549316 6.13442 5.88077 0.802979 12.5239 0.802979C19.2094 0.802979 24.5578 6.15135 24.5493 12.8114C24.5408 19.463 19.1502 24.8199 12.4901 24.8029C5.86384 24.7775 0.549316 19.4292 0.549316 12.7776ZM13.6156 9.99337C13.6156 9.66333 13.6156 9.45177 13.6156 9.2402C13.6156 8.27546 13.6918 8.19084 14.6311 8.18237C15.0119 8.18237 15.3843 8.18237 15.7736 8.18237C15.7736 7.31919 15.7736 6.55755 15.7736 5.72822C15.0373 5.72822 14.3434 5.71975 13.6495 5.72822C11.72 5.7536 10.6706 6.80297 10.6198 8.74091C10.6114 9.13865 10.6198 9.53639 10.6198 9.99337C10.1121 9.99337 9.70587 9.99337 9.27428 9.99337C9.27428 10.9581 9.27428 11.8636 9.27428 12.803C9.73126 12.8368 10.1544 12.8622 10.6621 12.896C10.6621 15.274 10.6621 17.6013 10.6621 19.9031C11.6607 19.9031 12.5662 19.9031 13.5225 19.9031C13.5225 17.5336 13.5225 15.2233 13.5225 12.8368C14.2418 12.8368 14.9019 12.8368 15.6212 12.8368C15.7059 11.8636 15.782 10.9581 15.8667 9.98491C15.0966 9.99337 14.4026 9.99337 13.6156 9.99337Z" fill="#D52B34"/>
</svg>
