<svg width="25" height="25" viewBox="0 0 25 25" fill="none" xmlns="http://www.w3.org/2000/svg">
<path d="M20.1318 12.8148C20.1318 11.5664 20.1676 10.318 20.1238 9.07164C20.0462 6.89145 18.529 5.43401 16.3548 5.42206C14.1288 5.40813 11.9028 5.41012 9.67485 5.42007C7.52851 5.43003 5.96355 6.82376 5.89785 8.94621C5.81821 11.4728 5.82219 14.0054 5.89785 16.5321C5.95758 18.5171 7.3752 19.9945 9.25474 20.0522C11.6818 20.1279 14.1129 20.1398 16.538 20.0721C18.6863 20.0124 20.078 18.5151 20.1318 16.3549C20.1597 15.1762 20.1378 13.9935 20.1378 12.8148C20.1358 12.8148 20.1338 12.8148 20.1318 12.8148ZM13.0158 17.3504C10.4673 17.3584 8.41253 15.2877 8.4185 12.7152C8.42448 10.1607 10.4235 8.11594 12.9262 8.10798C15.7296 8.09802 17.6291 9.95566 17.6012 12.6834C17.5753 15.2877 15.5564 17.3404 13.0158 17.3504ZM17.6768 9.04377C17.0079 9.01788 16.6296 8.62764 16.6395 7.97856C16.6495 7.31554 17.0835 6.93725 17.7286 6.95915C18.1686 6.97309 18.6286 7.33545 18.6286 8.04227C18.6305 8.59977 18.1208 9.0597 17.6768 9.04377Z" fill="#D52B34"/>
<path d="M12.9458 9.69904C11.2952 9.707 9.98508 11.0768 10.007 12.7712C10.0289 14.4437 11.3927 15.7797 13.0493 15.7538C14.7297 15.7259 16.0239 14.3362 16.008 12.5721C15.994 10.8041 14.8034 9.68909 12.9458 9.69904Z" fill="#D52B34"/>
<path d="M12.9519 0.802979C6.32373 0.802979 0.951904 6.17481 0.951904 12.803C0.951904 19.4312 6.32373 24.803 12.9519 24.803C19.5801 24.803 24.9519 19.4312 24.9519 12.803C24.9519 6.17481 19.5801 0.802979 12.9519 0.802979ZM21.4138 16.4784C21.384 19.1783 19.3372 21.3386 16.6612 21.4043C14.2341 21.464 11.8031 21.466 9.376 21.4102C6.6861 21.3485 4.62139 19.2042 4.5975 16.5123C4.5756 14.0514 4.57958 11.5904 4.59551 9.12752C4.61542 6.28829 6.61243 4.17978 9.45365 4.09616C11.813 4.02647 14.1764 4.03245 16.5358 4.09218C19.4188 4.16585 21.4059 6.28829 21.4198 9.19521C21.4258 10.4097 21.4198 11.6223 21.4198 12.8368C21.4178 12.8368 21.4178 12.8368 21.4158 12.8368C21.4178 14.0514 21.4278 15.2659 21.4138 16.4784Z" fill="#D52B34"/>
</svg>
